classDiagram

class WebService {
  - daouser : UserDAO
  - daochild : ChildDAO
  - daotap : TapDAO
  + login(user, password)
}

class User {
  - id : int
  - username : string
  - password : string
  - email : string
  - idrole : int
}

class Child {
  - id : int
  - child_name : string
  - sleep_average : int
  - treatment_id : int
  - time : int
}

class Tap {
  - id : int
  - child_id : int
  - status_id : int
  - user_id : int
  - init : datetime
  - end : datetime
}

class UserDAO {
  - users : List~User~
  + listAllUsers() List~User~
  + addUser(User u)
  + updateUser(User u)
  + deleteUser(int id)
  + searchByEmail(String email) User
}

class ChildDAO {
  - children : List~Child~
  + listAllChildren() List~Child~
  + addChild(Child c)
  + updateChild(Child c)
  + deleteChild(int id)
  + getChildById(int id) Child
}

class TapDAO {
  + addTap(Tap t)
  + updateTap(Tap t)
  + deleteTap(int id)
  + getTapsByChild(int child_id)
}

%% Relaciones de herencia
WebService <|-- UserDAO
WebService <|-- ChildDAO
WebService <|-- TapDAO

UserDAO <|-- User

ChildDAO <|-- User
ChildDAO <|-- Child
ChildDAO <|-- Tap

TapDAO <|-- Tap
